<?xml version="1.0" encoding="UTF-8" standalone="no"?>
<!DOCTYPE svg PUBLIC "-//W3C//DTD SVG 1.1//EN"
 "http://www.w3.org/Graphics/SVG/1.1/DTD/svg11.dtd">
<!-- Generated by graphviz version 2.40.1 (20161225.0304)
 -->
<!-- Title: G Pages: 1 -->
<svg width="476pt" height="892pt"
 viewBox="0.00 0.00 475.99 892.00" xmlns="http://www.w3.org/2000/svg" xmlns:xlink="http://www.w3.org/1999/xlink">
<g id="graph0" class="graph" transform="scale(1 1) rotate(0) translate(4 888)">
<title>G</title>
<polygon fill="#ffffff" stroke="transparent" points="-4,4 -4,-888 471.9857,-888 471.9857,4 -4,4"/>
<!-- A0 -->
<g id="node1" class="node">
<title>A0</title>
<polygon fill="#a020f0" stroke="#000000" points="165.1007,-884 51.8706,-884 51.8706,-848 171.1007,-848 171.1007,-878 165.1007,-884"/>
<polyline fill="none" stroke="#000000" points="165.1007,-884 165.1007,-878 "/>
<polyline fill="none" stroke="#000000" points="171.1007,-878 165.1007,-878 "/>
<text text-anchor="middle" x="111.4857" y="-869" font-family="Helvetica,sans-Serif" font-size="10.00" fill="#000000">Diagramme de class</text>
<text text-anchor="middle" x="111.4857" y="-857" font-family="Helvetica,sans-Serif" font-size="10.00" fill="#000000">du Zoo Arcadia.</text>
</g>
<!-- A1 -->
<g id="node2" class="node">
<title>A1</title>
<polygon fill="none" stroke="#000000" points="285.8263,-884 189.1451,-884 189.1451,-848 285.8263,-848 285.8263,-884"/>
<text text-anchor="middle" x="237.4857" y="-863" font-family="Helvetica,sans-Serif" font-size="10.00" fill="#000000">Arcadia system</text>
</g>
<!-- A2 -->
<g id="node3" class="node">
<title>A2</title>
<polygon fill="none" stroke="#000000" points="194.4857,-766 194.4857,-798 280.4857,-798 280.4857,-766 194.4857,-766"/>
<text text-anchor="start" x="223.3182" y="-779" font-family="Helvetica,sans-Serif" font-size="10.00" fill="#000000">Admin</text>
<polygon fill="none" stroke="#000000" points="194.4857,-638 194.4857,-766 280.4857,-766 280.4857,-638 194.4857,-638"/>
<text text-anchor="start" x="208.0407" y="-747" font-family="Helvetica,sans-Serif" font-size="10.00" fill="#000000">createusers()</text>
<text text-anchor="start" x="213.8752" y="-723" font-family="Helvetica,sans-Serif" font-size="10.00" fill="#000000">editusers()</text>
<text text-anchor="start" x="209.4212" y="-699" font-family="Helvetica,sans-Serif" font-size="10.00" fill="#000000">addcontent()</text>
<text text-anchor="start" x="209.7017" y="-675" font-family="Helvetica,sans-Serif" font-size="10.00" fill="#000000">editcontent()</text>
<text text-anchor="start" x="204.1427" y="-651" font-family="Helvetica,sans-Serif" font-size="10.00" fill="#000000">deletecontent()</text>
</g>
<!-- A1&#45;&gt;A2 -->
<g id="edge1" class="edge">
<title>A1&#45;&gt;A2</title>
<path fill="none" stroke="#000000" d="M237.4857,-847.8523C237.4857,-837.4416 237.4857,-823.5048 237.4857,-808.6221"/>
<polygon fill="#000000" stroke="#000000" points="237.4857,-798.1993 241.9858,-808.1993 237.4857,-803.1993 237.4858,-808.1993 237.4858,-808.1993 237.4858,-808.1993 237.4857,-803.1993 232.9858,-808.1994 237.4857,-798.1993 237.4857,-798.1993"/>
<text text-anchor="middle" x="245.938" y="-813.3255" font-family="Helvetica,sans-Serif" font-size="10.00" fill="#000000">1</text>
<text text-anchor="middle" x="229.0333" y="-826.7261" font-family="Helvetica,sans-Serif" font-size="10.00" fill="#000000">1</text>
</g>
<!-- A3 -->
<g id="node4" class="node">
<title>A3</title>
<polygon fill="none" stroke="#000000" points="263.4857,-556 263.4857,-588 333.4857,-588 333.4857,-556 263.4857,-556"/>
<text text-anchor="start" x="286.2622" y="-569" font-family="Helvetica,sans-Serif" font-size="10.00" fill="#000000">users</text>
<polygon fill="none" stroke="#000000" points="263.4857,-452 263.4857,-556 333.4857,-556 333.4857,-452 263.4857,-452"/>
<text text-anchor="start" x="286.5392" y="-537" font-family="Helvetica,sans-Serif" font-size="10.00" fill="#000000">id: int</text>
<text text-anchor="start" x="273.4802" y="-525" font-family="Helvetica,sans-Serif" font-size="10.00" fill="#000000"> username:</text>
<text text-anchor="start" x="281.8182" y="-513" font-family="Helvetica,sans-Serif" font-size="10.00" fill="#000000">varchar</text>
<text text-anchor="start" x="274.3147" y="-501" font-family="Helvetica,sans-Serif" font-size="10.00" fill="#000000"> password:</text>
<text text-anchor="start" x="281.8182" y="-489" font-family="Helvetica,sans-Serif" font-size="10.00" fill="#000000">varchar</text>
<text text-anchor="start" x="282.0942" y="-477" font-family="Helvetica,sans-Serif" font-size="10.00" fill="#000000"> admin:</text>
<text text-anchor="start" x="284.8732" y="-465" font-family="Helvetica,sans-Serif" font-size="10.00" fill="#000000">binary</text>
<polygon fill="none" stroke="#000000" points="263.4857,-408 263.4857,-452 333.4857,-452 333.4857,-408 263.4857,-408"/>
<text text-anchor="start" x="283.2097" y="-433" font-family="Helvetica,sans-Serif" font-size="10.00" fill="#000000"> login()</text>
<text text-anchor="start" x="280.1502" y="-421" font-family="Helvetica,sans-Serif" font-size="10.00" fill="#000000"> logout()</text>
</g>
<!-- A2&#45;&gt;A3 -->
<g id="edge2" class="edge">
<title>A2&#45;&gt;A3</title>
<path fill="none" stroke="#000000" d="M259.6806,-637.9526C263.299,-624.9028 267.0862,-611.2441 270.8164,-597.7909"/>
<polygon fill="#000000" stroke="#000000" points="273.5193,-588.0428 275.1837,-598.8816 272.1833,-592.861 270.8473,-597.6792 270.8473,-597.6792 270.8473,-597.6792 272.1833,-592.861 266.5109,-596.4768 273.5193,-588.0428 273.5193,-588.0428"/>
<text text-anchor="middle" x="276.8212" y="-604.7683" font-family="Helvetica,sans-Serif" font-size="10.00" fill="#000000"> create*</text>
<text text-anchor="middle" x="256.3787" y="-615.2271" font-family="Helvetica,sans-Serif" font-size="10.00" fill="#000000">1</text>
</g>
<!-- A4 -->
<g id="node5" class="node">
<title>A4</title>
<polygon fill="none" stroke="#000000" points="32.4857,-540 32.4857,-572 91.4857,-572 91.4857,-540 32.4857,-540"/>
<text text-anchor="start" x="44.7637" y="-553" font-family="Helvetica,sans-Serif" font-size="10.00" fill="#000000">animals</text>
<polygon fill="none" stroke="#000000" points="32.4857,-424 32.4857,-540 91.4857,-540 91.4857,-424 32.4857,-424"/>
<text text-anchor="start" x="50.0392" y="-521" font-family="Helvetica,sans-Serif" font-size="10.00" fill="#000000">id: int</text>
<text text-anchor="start" x="42.2597" y="-509" font-family="Helvetica,sans-Serif" font-size="10.00" fill="#000000"> prenom:</text>
<text text-anchor="start" x="45.3182" y="-497" font-family="Helvetica,sans-Serif" font-size="10.00" fill="#000000">varchar</text>
<text text-anchor="start" x="49.4832" y="-485" font-family="Helvetica,sans-Serif" font-size="10.00" fill="#000000"> race:</text>
<text text-anchor="start" x="45.3182" y="-473" font-family="Helvetica,sans-Serif" font-size="10.00" fill="#000000">varchar</text>
<text text-anchor="start" x="44.2002" y="-461" font-family="Helvetica,sans-Serif" font-size="10.00" fill="#000000"> habitat:</text>
<text text-anchor="start" x="45.3182" y="-449" font-family="Helvetica,sans-Serif" font-size="10.00" fill="#000000">varchar</text>
<text text-anchor="start" x="42.5402" y="-437" font-family="Helvetica,sans-Serif" font-size="10.00" fill="#000000"> view: int</text>
</g>
<!-- A2&#45;&gt;A4 -->
<g id="edge3" class="edge">
<title>A2&#45;&gt;A4</title>
<path fill="none" stroke="#000000" d="M194.4779,-685.0246C165.0241,-660.7185 126.6984,-625.484 100.4857,-588 98.8389,-585.6451 97.2397,-583.2095 95.689,-580.7142"/>
<polygon fill="#000000" stroke="#000000" points="90.6051,-572.0304 99.5409,-578.3867 93.1313,-576.3453 95.6575,-580.6603 95.6575,-580.6603 95.6575,-580.6603 93.1313,-576.3453 91.7741,-582.9338 90.6051,-572.0304 90.6051,-572.0304"/>
<text text-anchor="middle" x="107.0573" y="-580.4025" font-family="Helvetica,sans-Serif" font-size="10.00" fill="#000000">*</text>
<text text-anchor="middle" x="175.1564" y="-676.8596" font-family="Helvetica,sans-Serif" font-size="10.00" fill="#000000">1</text>
</g>
<!-- A5 -->
<g id="node6" class="node">
<title>A5</title>
<polygon fill="none" stroke="#000000" points="109.4857,-522 109.4857,-554 245.4857,-554 245.4857,-522 109.4857,-522"/>
<text text-anchor="start" x="162.4792" y="-535" font-family="Helvetica,sans-Serif" font-size="10.00" fill="#000000">habitat</text>
<polygon fill="none" stroke="#000000" points="109.4857,-442 109.4857,-522 245.4857,-522 245.4857,-442 109.4857,-442"/>
<text text-anchor="start" x="162.7602" y="-503" font-family="Helvetica,sans-Serif" font-size="10.00" fill="#000000"> id : int</text>
<text text-anchor="start" x="164.9832" y="-491" font-family="Helvetica,sans-Serif" font-size="10.00" fill="#000000"> nom:</text>
<text text-anchor="start" x="119.4217" y="-479" font-family="Helvetica,sans-Serif" font-size="10.00" fill="#000000">descriptionHabitat:varchar</text>
<text text-anchor="start" x="137.7577" y="-467" font-family="Helvetica,sans-Serif" font-size="10.00" fill="#000000"> &#160;animaux:varchar</text>
<text text-anchor="start" x="137.4787" y="-455" font-family="Helvetica,sans-Serif" font-size="10.00" fill="#000000"> validate: BINARY</text>
</g>
<!-- A2&#45;&gt;A5 -->
<g id="edge4" class="edge">
<title>A2&#45;&gt;A5</title>
<path fill="none" stroke="#000000" d="M215.6546,-637.9526C209.0286,-613.6574 201.8271,-587.252 195.4831,-563.9907"/>
<polygon fill="#000000" stroke="#000000" points="192.8209,-554.2293 199.7936,-562.6929 194.1366,-559.0531 195.4522,-563.877 195.4522,-563.877 195.4522,-563.877 194.1366,-559.0531 191.1108,-565.061 192.8209,-554.2293 192.8209,-554.2293"/>
<text text-anchor="middle" x="205.7448" y="-566.4928" font-family="Helvetica,sans-Serif" font-size="10.00" fill="#000000">*</text>
<text text-anchor="middle" x="202.7307" y="-619.6891" font-family="Helvetica,sans-Serif" font-size="10.00" fill="#000000">1</text>
</g>
<!-- A6 -->
<g id="node7" class="node">
<title>A6</title>
<polygon fill="none" stroke="#000000" points="331.4857,-128 331.4857,-160 468.4857,-160 468.4857,-128 331.4857,-128"/>
<text text-anchor="start" x="381.6527" y="-141" font-family="Helvetica,sans-Serif" font-size="10.00" fill="#000000">services</text>
<polygon fill="none" stroke="#000000" points="331.4857,-48 331.4857,-128 468.4857,-128 468.4857,-48 331.4857,-48"/>
<text text-anchor="start" x="388.0392" y="-109" font-family="Helvetica,sans-Serif" font-size="10.00" fill="#000000"> id:int</text>
<text text-anchor="start" x="369.1522" y="-85" font-family="Helvetica,sans-Serif" font-size="10.00" fill="#000000">libelle:varchar</text>
<text text-anchor="start" x="341.0907" y="-61" font-family="Helvetica,sans-Serif" font-size="10.00" fill="#000000">descriptionService:varchar</text>
</g>
<!-- A2&#45;&gt;A6 -->
<g id="edge5" class="edge">
<title>A2&#45;&gt;A6</title>
<path fill="none" stroke="#000000" d="M280.5504,-686.8404C309.4689,-663.2587 345.4623,-628.1426 363.4857,-588 425.5051,-449.8673 418.193,-267.1713 408.3255,-170.5403"/>
<polygon fill="#000000" stroke="#000000" points="407.2399,-160.3265 412.7717,-169.7949 407.7684,-165.2985 408.2969,-170.2705 408.2969,-170.2705 408.2969,-170.2705 407.7684,-165.2985 403.8221,-170.7462 407.2399,-160.3265 407.2399,-160.3265"/>
<text text-anchor="middle" x="417.5607" y="-174.4578" font-family="Helvetica,sans-Serif" font-size="10.00" fill="#000000">*</text>
<text text-anchor="middle" x="289.03" y="-665.727" font-family="Helvetica,sans-Serif" font-size="10.00" fill="#000000">1</text>
</g>
<!-- A7 -->
<g id="node8" class="node">
<title>A7</title>
<polygon fill="none" stroke="#000000" points="39.4857,-326 39.4857,-358 105.4857,-358 105.4857,-326 39.4857,-326"/>
<text text-anchor="start" x="49.4717" y="-339" font-family="Helvetica,sans-Serif" font-size="10.00" fill="#000000">vétérinaire</text>
<polygon fill="none" stroke="#000000" points="39.4857,-258 39.4857,-326 105.4857,-326 105.4857,-258 39.4857,-258"/>
<text text-anchor="start" x="60.8182" y="-307" font-family="Helvetica,sans-Serif" font-size="10.00" fill="#000000">add()</text>
<text text-anchor="start" x="59.7092" y="-295" font-family="Helvetica,sans-Serif" font-size="10.00" fill="#000000"> edit()</text>
<text text-anchor="start" x="55.5397" y="-271" font-family="Helvetica,sans-Serif" font-size="10.00" fill="#000000">delete()</text>
</g>
<!-- A2&#45;&gt;A7 -->
<g id="edge6" class="edge">
<title>A2&#45;&gt;A7</title>
<path fill="none" stroke="#000000" d="M194.2356,-706.0095C142.7455,-689.1478 59.1247,-652.9699 22.4857,-588 -16.8114,-518.3168 4.1054,-485.8599 22.4857,-408 25.7154,-394.3187 31.1193,-380.3751 37.2088,-367.4126"/>
<polygon fill="#000000" stroke="#000000" points="41.7428,-358.165 41.381,-369.1249 39.5416,-362.6544 37.3405,-367.1439 37.3405,-367.1439 37.3405,-367.1439 39.5416,-362.6544 33.3,-365.1629 41.7428,-358.165 41.7428,-358.165"/>
<text text-anchor="middle" x="41.3525" y="-375.1612" font-family="Helvetica,sans-Serif" font-size="10.00" fill="#000000">*</text>
<text text-anchor="middle" x="174.3425" y="-705.074" font-family="Helvetica,sans-Serif" font-size="10.00" fill="#000000">1</text>
</g>
<!-- A8 -->
<g id="node9" class="node">
<title>A8</title>
<polygon fill="none" stroke="#000000" points="286.4857,-326 286.4857,-358 350.4857,-358 350.4857,-326 286.4857,-326"/>
<text text-anchor="start" x="296.2592" y="-339" font-family="Helvetica,sans-Serif" font-size="10.00" fill="#000000">Employee</text>
<polygon fill="none" stroke="#000000" points="286.4857,-258 286.4857,-326 350.4857,-326 350.4857,-258 286.4857,-258"/>
<text text-anchor="start" x="306.8182" y="-307" font-family="Helvetica,sans-Serif" font-size="10.00" fill="#000000">add()</text>
<text text-anchor="start" x="305.7092" y="-295" font-family="Helvetica,sans-Serif" font-size="10.00" fill="#000000"> edit()</text>
<text text-anchor="start" x="301.5397" y="-271" font-family="Helvetica,sans-Serif" font-size="10.00" fill="#000000">delete()</text>
</g>
<!-- A2&#45;&gt;A8 -->
<g id="edge7" class="edge">
<title>A2&#45;&gt;A8</title>
<path fill="none" stroke="#000000" d="M280.7053,-679.2597C303.8619,-655.5129 330.1119,-623.0129 342.4857,-588 368.1504,-515.3793 353.0351,-425.8459 337.6756,-367.8751"/>
<polygon fill="#000000" stroke="#000000" points="335.0153,-358.1404 341.9923,-366.6004 336.3334,-362.9635 337.6515,-367.7867 337.6515,-367.7867 337.6515,-367.7867 336.3334,-362.9635 333.3106,-368.973 335.0153,-358.1404 335.0153,-358.1404"/>
<text text-anchor="middle" x="347.9469" y="-370.3972" font-family="Helvetica,sans-Serif" font-size="10.00" fill="#000000">*</text>
<text text-anchor="middle" x="287.0772" y="-657.3018" font-family="Helvetica,sans-Serif" font-size="10.00" fill="#000000">1</text>
</g>
<!-- A3&#45;&gt;A7 -->
<g id="edge12" class="edge">
<title>A3&#45;&gt;A7</title>
<path fill="none" stroke="#000000" d="M263.3113,-418.522C260.5465,-414.8093 257.6061,-411.2729 254.4857,-408 215.2999,-366.899 155.4344,-338.5181 115.1716,-322.7642"/>
<polygon fill="#000000" stroke="#000000" points="105.6347,-319.1248 116.582,-318.4859 110.3062,-320.9075 114.9776,-322.6902 114.9776,-322.6902 114.9776,-322.6902 110.3062,-320.9075 113.3732,-326.8945 105.6347,-319.1248 105.6347,-319.1248"/>
<text text-anchor="middle" x="245.6553" y="-406.127" font-family="Helvetica,sans-Serif" font-size="10.00" fill="#000000">gestion</text>
</g>
<!-- A3&#45;&gt;A8 -->
<g id="edge11" class="edge">
<title>A3&#45;&gt;A8</title>
<path fill="none" stroke="#000000" d="M307.9878,-407.7297C309.3894,-394.4147 310.804,-380.9756 312.1213,-368.4619"/>
<polygon fill="#000000" stroke="#000000" points="313.2024,-358.1911 316.6307,-368.6073 312.6789,-363.1637 312.1555,-368.1362 312.1555,-368.1362 312.1555,-368.1362 312.6789,-363.1637 307.6802,-367.6651 313.2024,-358.1911 313.2024,-358.1911"/>
<text text-anchor="middle" x="319.7108" y="-374.1025" font-family="Helvetica,sans-Serif" font-size="10.00" fill="#000000"> </text>
<text text-anchor="middle" x="301.4794" y="-385.8183" font-family="Helvetica,sans-Serif" font-size="10.00" fill="#000000">gestion</text>
</g>
<!-- A10 -->
<g id="node11" class="node">
<title>A10</title>
<polygon fill="none" stroke="#000000" points="17.4857,-176 17.4857,-208 127.4857,-208 127.4857,-176 17.4857,-176"/>
<text text-anchor="start" x="46.6452" y="-189" font-family="Helvetica,sans-Serif" font-size="10.00" fill="#000000">observation</text>
<polygon fill="none" stroke="#000000" points="17.4857,0 17.4857,-176 127.4857,-176 127.4857,0 17.4857,0"/>
<text text-anchor="start" x="60.5392" y="-157" font-family="Helvetica,sans-Serif" font-size="10.00" fill="#000000"> id:int</text>
<text text-anchor="start" x="39.7067" y="-133" font-family="Helvetica,sans-Serif" font-size="10.00" fill="#000000">animal:varchar</text>
<text text-anchor="start" x="42.1972" y="-109" font-family="Helvetica,sans-Serif" font-size="10.00" fill="#000000">date:datetime</text>
<text text-anchor="start" x="56.3747" y="-85" font-family="Helvetica,sans-Serif" font-size="10.00" fill="#000000">time:int</text>
<text text-anchor="start" x="28.5882" y="-61" font-family="Helvetica,sans-Serif" font-size="10.00" fill="#000000">observation:varchar</text>
<text text-anchor="start" x="44.7012" y="-37" font-family="Helvetica,sans-Serif" font-size="10.00" fill="#000000">etat: varchar</text>
<text text-anchor="start" x="27.2047" y="-13" font-family="Helvetica,sans-Serif" font-size="10.00" fill="#000000">amelioration:varchar</text>
</g>
<!-- A7&#45;&gt;A10 -->
<g id="edge10" class="edge">
<title>A7&#45;&gt;A10</title>
<path fill="none" stroke="#000000" d="M72.4857,-257.8347C72.4857,-245.6834 72.4857,-232.1954 72.4857,-218.4003"/>
<polygon fill="#000000" stroke="#000000" points="72.4857,-208.3157 76.9858,-218.3157 72.4857,-213.3157 72.4858,-218.3157 72.4858,-218.3157 72.4858,-218.3157 72.4857,-213.3157 67.9858,-218.3158 72.4857,-208.3157 72.4857,-208.3157"/>
<text text-anchor="middle" x="80.938" y="-223.4419" font-family="Helvetica,sans-Serif" font-size="10.00" fill="#000000">*</text>
<text text-anchor="middle" x="64.0333" y="-236.7086" font-family="Helvetica,sans-Serif" font-size="10.00" fill="#000000">* </text>
</g>
<!-- A8&#45;&gt;A6 -->
<g id="edge9" class="edge">
<title>A8&#45;&gt;A6</title>
<path fill="none" stroke="#000000" d="M338.4042,-257.8347C348.9676,-231.2307 362.0751,-198.2193 373.4364,-169.6056"/>
<polygon fill="#000000" stroke="#000000" points="377.2162,-160.086 377.7082,-171.0408 375.371,-164.7331 373.5259,-169.3802 373.5259,-169.3802 373.5259,-169.3802 375.371,-164.7331 369.3435,-167.7195 377.2162,-160.086 377.2162,-160.086"/>
<text text-anchor="middle" x="378.3829" y="-177.0519" font-family="Helvetica,sans-Serif" font-size="10.00" fill="#000000">*</text>
<text text-anchor="middle" x="337.2376" y="-234.8688" font-family="Helvetica,sans-Serif" font-size="10.00" fill="#000000">*</text>
</g>
<!-- A9 -->
<g id="node10" class="node">
<title>A9</title>
<polygon fill="none" stroke="#000000" points="214.4857,-164 214.4857,-196 312.4857,-196 312.4857,-164 214.4857,-164"/>
<text text-anchor="start" x="235.9817" y="-177" font-family="Helvetica,sans-Serif" font-size="10.00" fill="#000000">Alimentation</text>
<polygon fill="none" stroke="#000000" points="214.4857,-12 214.4857,-164 312.4857,-164 312.4857,-12 214.4857,-12"/>
<text text-anchor="start" x="251.5392" y="-145" font-family="Helvetica,sans-Serif" font-size="10.00" fill="#000000"> id:int</text>
<text text-anchor="start" x="230.7067" y="-121" font-family="Helvetica,sans-Serif" font-size="10.00" fill="#000000">animal:varchar</text>
<text text-anchor="start" x="233.1972" y="-97" font-family="Helvetica,sans-Serif" font-size="10.00" fill="#000000">date:datetime</text>
<text text-anchor="start" x="247.3747" y="-73" font-family="Helvetica,sans-Serif" font-size="10.00" fill="#000000">time:int</text>
<text text-anchor="start" x="224.0387" y="-49" font-family="Helvetica,sans-Serif" font-size="10.00" fill="#000000">nourriture:varchar</text>
<text text-anchor="start" x="227.8032" y="-25" font-family="Helvetica,sans-Serif" font-size="10.00" fill="#000000">quantité:varchar</text>
</g>
<!-- A8&#45;&gt;A9 -->
<g id="edge8" class="edge">
<title>A8&#45;&gt;A9</title>
<path fill="none" stroke="#000000" d="M304.9607,-257.8347C300.7205,-242.1074 295.8766,-224.1407 291.0308,-206.1672"/>
<polygon fill="#000000" stroke="#000000" points="288.3423,-196.1953 295.2903,-204.6791 289.6439,-201.023 290.9455,-205.8506 290.9455,-205.8506 290.9455,-205.8506 289.6439,-201.023 286.6006,-207.022 288.3423,-196.1953 288.3423,-196.1953"/>
<text text-anchor="middle" x="301.2217" y="-208.4963" font-family="Helvetica,sans-Serif" font-size="10.00" fill="#000000">*</text>
<text text-anchor="middle" x="292.0813" y="-239.5337" font-family="Helvetica,sans-Serif" font-size="10.00" fill="#000000">*</text>
</g>
</g>
</svg>
